<?xml version="1.0" encoding="utf-8"?>
<!-- Generator: Adobe Illustrator 18.0.0, SVG Export Plug-In . SVG Version: 6.00 Build 0)  -->
<!DOCTYPE svg PUBLIC "-//W3C//DTD SVG 1.1//EN" "http://www.w3.org/Graphics/SVG/1.1/DTD/svg11.dtd">
<svg version="1.1" id="Capa_1" xmlns="http://www.w3.org/2000/svg" xmlns:xlink="http://www.w3.org/1999/xlink" x="0px" y="0px"
	 viewBox="0 0 344 536.4" enable-background="new 0 0 344 536.4" xml:space="preserve">
<g>
	<path fill="#BF2720" d="M254.1,278.2c0,0,57.5,43.4,89.9-1.1c0,0-56,6.8-75.5-41.5C250.2,211.1,225.9,265.4,254.1,278.2z"/>
	<path fill="#BF2720" d="M269.1,22.3c0,0,9.1-18.6-21-20.2C218,0.4,27.3,0.6,20.7,0C14-0.5,1.5,7.7,1.1,32.9C0.7,58,3,510,2.7,513.3
		c-0.3,3.3-3.1,16.5,8.6,18.4c11.6,1.8,118.6,8.1,161.9,2.5c43.3-5.7,84.3-3.9,84.3-3.9s12.5,1,14.1-8.1
		C273.2,513,269.1,22.3,269.1,22.3z"/>
	<path fill="#989898" d="M31.7,240.7c0,0-5.8-0.5-5.8,9.6c0,10.1-2,34.3-2,34.3s2.2,4.4,13.1,4.4c10.9,0.1,183.8,1.8,193.3-0.8
		c9.5-2.6,13.8,6.2,15.2-11.3c1.5-17.5,2.1-35.1-7.9-35.9C227.5,240.1,31.7,240.7,31.7,240.7z"/>
	<path fill="#989898" d="M238.8,226.8c0,0,5.8,0.5,5.8-9.6c-0.1-10.1,1.8-34.3,1.8-34.3s-2.2-4.4-13.1-4.4
		c-10.9,0-183.8-0.9-193.3,1.7c-9.4,2.6-13.8-6.1-15.2,11.4c-1.4,17.5-1.9,35.1,8.1,35.9C43,228.2,238.8,226.8,238.8,226.8z"/>
	<path fill="#989898" d="M32.9,301.4c0,0-7.8-2-8.1,6.8c-0.3,8.8-1.5,143.1-1.5,143.1s0.1,4.4,8.3,5.5s194.3-1.1,199.1,0.2
		c4.7,1.3,13.1,1.5,13.7-5.9c0.6-7.4,4.5-142.4-0.4-146.7C239.2,300,32.9,301.4,32.9,301.4z"/>
	<path fill="#EFEFEF" d="M31.9,238c0,0-5.8-0.5-5.8,9.6c0,10.1-2,34.3-2,34.3s2.2,4.4,13.1,4.4c10.9,0.1,183.8,1.8,193.3-0.8
		c9.5-2.6,13.8,6.2,15.2-11.3c1.5-17.5,2.1-35.1-7.9-35.9C227.7,237.4,31.9,238,31.9,238z"/>
	<path fill="#EFEFEF" d="M239,224.1c0,0,5.8,0.5,5.8-9.6c-0.1-10.1,1.8-34.3,1.8-34.3s-2.2-4.4-13.1-4.4
		c-10.9,0-183.8-0.9-193.3,1.7c-9.4,2.6-13.8-6.1-15.2,11.4c-1.4,17.5-1.9,35.1,8.1,35.9C43.3,225.6,239,224.1,239,224.1z"/>
	<path fill="#EFEFEF" d="M33.2,298.7c0,0-7.8-2-8.1,6.8c-0.3,8.8-1.5,143.1-1.5,143.1s0.1,4.4,8.3,5.5s194.3-1.1,199.1,0.2
		c4.7,1.3,13.1,1.5,13.7-5.9c0.6-7.4,4.5-142.4-0.4-146.7C239.4,297.3,33.2,298.7,33.2,298.7z"/>
	<path fill="#989898" d="M172,470.2c0,0-2.1,19.3-2.8,22c-0.7,2.7,25.7-2.2,68,3c1.3,0.2,3-22.9,3-22.9S177.7,468.8,172,470.2z"/>
	<path fill="#F2F2F2" d="M171.8,467.8c0,0-2.2,19.8-2.9,22.6c-0.8,2.8,25.8-2.4,68.4,2.9c1.3,0.2,3.1-23.5,3.1-23.5
		S177.6,466.2,171.8,467.8z"/>
</g>
</svg>
